REM DIRINDEX 1\2,1\4,1\5,1\6,1\7,1\3\8,1\3\9,1\3\10
REM DIRNAME cjc113,folder01,folder02,folder03,folder04,folder05,folder06,folder07,folder08,folder09
TITLE ""
FILE "DB4500_5th_4B_23.mp3" MP3
  TRACK 01 AUDIO
    TITLE "7:cjc113_2631"
    INDEX 01 00:00:00
  TRACK 02 AUDIO
    TITLE "8:cjc113_2632"
    INDEX 01 00:02:08
  TRACK 03 AUDIO
    TITLE "0:"
    INDEX 01 00:03:17
  TRACK 04 AUDIO
    TITLE "9:cjc113_2633"
    INDEX 01 00:03:39
  TRACK 05 AUDIO
    TITLE "0:"
    INDEX 01 00:04:54
  TRACK 06 AUDIO
    TITLE "10:cjc113_2634"
    INDEX 01 00:05:01
  TRACK 07 AUDIO
    TITLE "0:"
    INDEX 01 00:08:19
  TRACK 08 AUDIO
    TITLE "8:cjc113_2635"
    INDEX 01 00:08:72
  TRACK 09 AUDIO
    TITLE "0:"
    INDEX 01 00:10:10
  TRACK 10 AUDIO
    TITLE "9:cjc113_2636"
    INDEX 01 00:10:31
  TRACK 11 AUDIO
    TITLE "0:"
    INDEX 01 00:11:46
  TRACK 12 AUDIO
    TITLE "10:cjc113_2637"
    INDEX 01 00:11:70
  TRACK 13 AUDIO
    TITLE "0:"
    INDEX 01 00:15:66
  TRACK 14 AUDIO
    TITLE "8:cjc113_2638"
    INDEX 01 00:16:40
  TRACK 15 AUDIO
    TITLE "0:"
    INDEX 01 00:17:43
  TRACK 16 AUDIO
    TITLE "9:cjc113_2639"
    INDEX 01 00:17:69
  TRACK 17 AUDIO
    TITLE "0:"
    INDEX 01 00:18:64
  TRACK 18 AUDIO
    TITLE "10:cjc113_2640"
    INDEX 01 00:19:11
  TRACK 19 AUDIO
    TITLE "0:"
    INDEX 01 00:22:19
  TRACK 20 AUDIO
    TITLE "8:cjc113_2641"
    INDEX 01 00:22:66
  TRACK 21 AUDIO
    TITLE "0:"
    INDEX 01 00:24:06
  TRACK 22 AUDIO
    TITLE "9:cjc113_2642"
    INDEX 01 00:24:31
  TRACK 23 AUDIO
    TITLE "0:"
    INDEX 01 00:25:31
  TRACK 24 AUDIO
    TITLE "10:cjc113_2643"
    INDEX 01 00:25:54
  TRACK 25 AUDIO
    TITLE "0:"
    INDEX 01 00:30:20
  TRACK 26 AUDIO
    TITLE "8:cjc113_2644"
    INDEX 01 00:30:69
  TRACK 27 AUDIO
    TITLE "0:"
    INDEX 01 00:32:07
  TRACK 28 AUDIO
    TITLE "9:cjc113_2645"
    INDEX 01 00:32:25
  TRACK 29 AUDIO
    TITLE "0:"
    INDEX 01 00:33:54
  TRACK 30 AUDIO
    TITLE "10:cjc113_2646"
    INDEX 01 00:33:71
  TRACK 31 AUDIO
    TITLE "0:"
    INDEX 01 00:37:30
  TRACK 32 AUDIO
    TITLE "8:cjc113_2647"
    INDEX 01 00:38:04
  TRACK 33 AUDIO
    TITLE "0:"
    INDEX 01 00:39:19
  TRACK 34 AUDIO
    TITLE "9:cjc113_2648"
    INDEX 01 00:39:41
  TRACK 35 AUDIO
    TITLE "0:"
    INDEX 01 00:40:64
  TRACK 36 AUDIO
    TITLE "10:cjc113_2649"
    INDEX 01 00:41:12
  TRACK 37 AUDIO
    TITLE "0:"
    INDEX 01 00:44:01
  TRACK 38 AUDIO
    TITLE "8:cjc113_2650"
    INDEX 01 00:44:61
  TRACK 39 AUDIO
    TITLE "0:"
    INDEX 01 00:45:67
  TRACK 40 AUDIO
    TITLE "9:cjc113_2651"
    INDEX 01 00:46:09
  TRACK 41 AUDIO
    TITLE "0:"
    INDEX 01 00:47:09
  TRACK 42 AUDIO
    TITLE "10:cjc113_2652"
    INDEX 01 00:47:27
  TRACK 43 AUDIO
    TITLE "0:"
    INDEX 01 00:50:09
  TRACK 44 AUDIO
    TITLE "8:cjc113_2653"
    INDEX 01 00:50:48
  TRACK 45 AUDIO
    TITLE "0:"
    INDEX 01 00:51:65
  TRACK 46 AUDIO
    TITLE "9:cjc113_2654"
    INDEX 01 00:52:06
  TRACK 47 AUDIO
    TITLE "0:"
    INDEX 01 00:53:29
  TRACK 48 AUDIO
    TITLE "10:cjc113_2655"
    INDEX 01 00:53:49
  TRACK 49 AUDIO
    TITLE "0:"
    INDEX 01 00:56:67
  TRACK 50 AUDIO
    TITLE "8:cjc113_2656"
    INDEX 01 00:57:37
  TRACK 51 AUDIO
    TITLE "0:"
    INDEX 01 00:58:40
  TRACK 52 AUDIO
    TITLE "9:cjc113_2657"
    INDEX 01 00:58:58
  TRACK 53 AUDIO
    TITLE "0:"
    INDEX 01 01:00:12
  TRACK 54 AUDIO
    TITLE "10:cjc113_2658"
    INDEX 01 01:00:25
  TRACK 55 AUDIO
    TITLE "0:"
    INDEX 01 01:03:31
  TRACK 56 AUDIO
    TITLE "8:cjc113_2659"
    INDEX 01 01:03:69
  TRACK 57 AUDIO
    TITLE "0:"
    INDEX 01 01:05:07
  TRACK 58 AUDIO
    TITLE "9:cjc113_2660"
    INDEX 01 01:05:26
  TRACK 59 AUDIO
    TITLE "0:"
    INDEX 01 01:06:45
  TRACK 60 AUDIO
    TITLE "10:cjc113_2661"
    INDEX 01 01:06:57
  TRACK 61 AUDIO
    TITLE "0:"
    INDEX 01 01:11:31
  TRACK 62 AUDIO
    TITLE "8:cjc113_2662"
    INDEX 01 01:12:01
  TRACK 63 AUDIO
    TITLE "0:"
    INDEX 01 01:13:22
  TRACK 64 AUDIO
    TITLE "9:cjc113_2663"
    INDEX 01 01:13:42
  TRACK 65 AUDIO
    TITLE "0:"
    INDEX 01 01:14:49
  TRACK 66 AUDIO
    TITLE "10:cjc113_2664"
    INDEX 01 01:14:68
  TRACK 67 AUDIO
    TITLE "0:"
    INDEX 01 01:18:58
